<svg width="386" height="56" viewBox="0 0 386 56" fill="none" xmlns="http://www.w3.org/2000/svg">
<g clip-path="url(#clip0_806_2)">
<path d="M44.5366 0C44.7335 0 44.9271 0.0067686 45.124 0.0169215C44.9271 0.0067686 44.7302 0 44.5366 0Z" fill="#F90B4F"/>
<path d="M43.4485 0.0507497C43.6187 0.0338282 43.7923 0.0236753 43.9625 0.0169067C43.7923 0.0270596 43.6187 0.0338282 43.4485 0.0507497Z" fill="#F90B4F"/>
<path d="M42.3572 0.209797C42.5107 0.179338 42.6642 0.155648 42.8211 0.131958C42.6642 0.155648 42.5107 0.179338 42.3572 0.209797Z" fill="#F90B4F"/>
<path d="M48.9088 0.866394C49.0824 0.937464 49.2526 1.0153 49.4228 1.09314C49.2526 1.0153 49.079 0.937464 48.9088 0.866394Z" fill="#F90B4F"/>
<path d="M46.7161 0.209839C46.933 0.25045 47.1499 0.301215 47.3669 0.358748C47.1499 0.301215 46.933 0.25045 46.7161 0.209839Z" fill="#F90B4F"/>
<path d="M41.2625 0.480566C41.4126 0.43657 41.5662 0.395958 41.7197 0.355347C41.5628 0.392574 41.4126 0.433186 41.2625 0.480566Z" fill="#F90B4F"/>
<path d="M47.8108 0.477173C48.0144 0.53809 48.2146 0.605776 48.4149 0.676846C48.2146 0.605776 48.0144 0.53809 47.8108 0.477173Z" fill="#F90B4F"/>
<path d="M37.1405 2.70408C37.3241 2.5484 37.5143 2.39611 37.7112 2.25397C37.5176 2.39611 37.3274 2.5484 37.1405 2.70408Z" fill="#F90B4F"/>
<path d="M36.3362 3.44858C36.4797 3.30305 36.6232 3.16091 36.7767 3.02216C36.6266 3.15753 36.4797 3.30305 36.3362 3.44858Z" fill="#F90B4F"/>
<path d="M35.6019 4.26762C35.7054 4.14241 35.8089 4.0138 35.9157 3.89197C35.8089 4.0138 35.7054 4.13902 35.6019 4.26762Z" fill="#F90B4F"/>
<path d="M38.0616 2.00686C38.2652 1.86811 38.4722 1.73612 38.6791 1.6109C38.4688 1.73612 38.2652 1.86811 38.0616 2.00686Z" fill="#F90B4F"/>
<path d="M39.0863 1.38081C39.2732 1.27928 39.4634 1.18452 39.657 1.09314C39.4668 1.18452 39.2765 1.27928 39.0863 1.38081Z" fill="#F90B4F"/>
<path d="M40.1643 0.866401C40.3312 0.798715 40.4981 0.734413 40.6649 0.67688C40.4981 0.737797 40.3312 0.798715 40.1643 0.866401Z" fill="#F90B4F"/>
<path d="M45.6246 0.0507812C45.8382 0.071087 46.0518 0.101546 46.2654 0.132004C46.0518 0.101546 45.8382 0.071087 45.6246 0.0507812Z" fill="#F90B4F"/>
<path d="M52.7404 3.44861C52.8839 3.59413 53.024 3.73966 53.1609 3.89534C53.0274 3.74304 52.8839 3.59413 52.7404 3.44861Z" fill="#F90B4F"/>
<path d="M53.4746 4.26422C53.6281 4.45036 53.7783 4.64326 53.9218 4.84294C53.7783 4.64665 53.6281 4.45374 53.4746 4.26422Z" fill="#F90B4F"/>
<path d="M35.1581 4.84294C35.1213 4.89709 35.078 4.94447 35.0379 4.99861L28.0757 15.0466L21.3005 5.26936C17.7059 0.0812271 10.6803 -1.58046 5.40362 1.81737C-0.233534 5.44196 -1.68204 13.06 2.11278 18.5324L28.0757 55.9966L44.54 32.2388L35.0412 18.5324C32.1075 14.3054 32.3178 8.80257 35.1581 4.84294Z" fill="#E30438"/>
<path d="M51.2117 2.13208C51.1483 2.0847 51.0782 2.05086 51.0115 2.00348C51.1283 2.0847 51.2451 2.16593 51.3619 2.25053C51.3119 2.21331 51.2651 2.16931 51.2117 2.13208Z" fill="#F90B4F"/>
<path d="M51.9326 2.70404C52.0561 2.80895 52.1796 2.91387 52.2997 3.02216C52.1829 2.91387 52.0594 2.80895 51.9326 2.70404Z" fill="#F90B4F"/>
<path d="M49.9868 1.37738C50.127 1.45183 50.2638 1.52967 50.4007 1.6109C50.2638 1.52967 50.1237 1.45522 49.9868 1.37738Z" fill="#F90B4F"/>
<path d="M47.3635 0.355347C47.5137 0.392574 47.6606 0.433186 47.8108 0.477181C47.6639 0.433186 47.5137 0.395958 47.3635 0.355347Z" fill="#0D3FF7"/>
<path d="M37.8648 2.13208C37.8114 2.16931 37.7647 2.21331 37.7146 2.25053C37.8281 2.16593 37.9449 2.0847 38.065 2.00348C37.995 2.05086 37.9282 2.08809 37.8648 2.13208Z" fill="#0D3FF7"/>
<path d="M38.6792 1.61093C38.8127 1.52971 38.9495 1.45187 39.0864 1.3808C38.9495 1.45525 38.816 1.52971 38.6792 1.61093Z" fill="#0D3FF7"/>
<path d="M83.673 1.81734C78.3929 -1.5805 71.3707 0.0845803 67.7761 5.26933L61.0009 15.0466L54.0353 4.99858C53.9986 4.94443 53.9552 4.89705 53.9185 4.84629C56.7588 8.80592 56.9657 14.3054 54.0353 18.5358L44.5366 32.2422L61.0009 56L86.9638 18.5358C90.7586 13.06 89.3101 5.44193 83.673 1.81734Z" fill="#0D3FF7"/>
<path d="M53.1609 3.89532C53.2677 4.01716 53.3712 4.14238 53.4746 4.2676C53.3712 4.13899 53.2677 4.01378 53.1609 3.89532Z" fill="#0D3FF7"/>
<path d="M50.4006 1.61432C50.6076 1.73954 50.8145 1.86814 51.0148 2.0069C50.8112 1.86814 50.6076 1.73615 50.4006 1.61432Z" fill="#0D3FF7"/>
<path d="M35.9156 3.89195C36.0525 3.73966 36.1927 3.59075 36.3362 3.44861C36.1927 3.59413 36.0492 3.73966 35.9156 3.89195Z" fill="#0D3FF7"/>
<path d="M48.4148 0.67688C48.5783 0.737797 48.7452 0.798715 48.9054 0.866401C48.7452 0.798715 48.5817 0.737797 48.4148 0.67688Z" fill="#0D3FF7"/>
<path d="M36.7767 3.02216C36.8969 2.91387 37.0204 2.80895 37.1439 2.70404C37.017 2.80895 36.8935 2.91387 36.7767 3.02216Z" fill="#0D3FF7"/>
<path d="M49.4227 1.09314C49.613 1.18113 49.7999 1.27589 49.9868 1.37742C49.7999 1.27928 49.613 1.18452 49.4227 1.09314Z" fill="#0D3FF7"/>
<path d="M39.6571 1.09314C39.824 1.0153 39.9942 0.937464 40.1644 0.866394C39.9942 0.937464 39.8273 1.0153 39.6571 1.09314Z" fill="#0D3FF7"/>
<path d="M40.665 0.67688C40.862 0.60581 41.0589 0.538124 41.2591 0.480591C41.0622 0.538124 40.862 0.60581 40.665 0.67688Z" fill="#0D3FF7"/>
<path d="M43.9625 0.0169215C44.1528 0.0067686 44.343 0 44.5332 0C44.343 0 44.1528 0.0067686 43.9625 0.0169215Z" fill="#0D3FF7"/>
<path d="M51.3652 2.25397C51.5622 2.39949 51.7491 2.5484 51.9326 2.70408C51.7457 2.54502 51.5588 2.39611 51.3652 2.25397Z" fill="#0D3FF7"/>
<path d="M45.124 0.0169067C45.2909 0.0236753 45.4578 0.0338282 45.6247 0.0507497C45.4578 0.0338282 45.2909 0.0270596 45.124 0.0169067Z" fill="#0D3FF7"/>
<path d="M46.2654 0.131958C46.4156 0.155648 46.5658 0.179338 46.716 0.206413C46.5658 0.179338 46.4156 0.155648 46.2654 0.131958Z" fill="#0D3FF7"/>
<path d="M42.8177 0.132004C43.028 0.101546 43.2349 0.071087 43.4452 0.0507812C43.2383 0.071087 43.028 0.101546 42.8177 0.132004Z" fill="#0D3FF7"/>
<path d="M41.7163 0.355364C41.9299 0.301215 42.1402 0.25045 42.3538 0.209839C42.1435 0.25045 41.9299 0.301215 41.7163 0.355364Z" fill="#0D3FF7"/>
<path d="M52.2998 3.02216C52.45 3.16091 52.5968 3.30305 52.737 3.44858C52.5968 3.30305 52.45 3.15753 52.2998 3.02216Z" fill="#0D3FF7"/>
<path d="M35.158 4.84291C35.3015 4.64324 35.4483 4.45371 35.6019 4.26758C35.4483 4.4571 35.2981 4.64662 35.158 4.84291Z" fill="#0D3FF7"/>
<path d="M53.9185 4.84293C53.775 4.64326 53.6248 4.45374 53.4713 4.26422C53.3678 4.139 53.2677 4.01378 53.1576 3.89194C53.0207 3.73627 52.8772 3.59074 52.737 3.44522C52.5935 3.29969 52.45 3.15755 52.2998 3.01879C52.1797 2.90711 52.0562 2.80558 51.9327 2.70067C51.7491 2.54499 51.5589 2.39608 51.3653 2.25056C51.2485 2.16595 51.1317 2.08473 51.0149 2.00351C50.8113 1.86475 50.6077 1.73276 50.4007 1.61093C50.2639 1.5297 50.1271 1.45186 49.9869 1.37741C49.8 1.27588 49.6131 1.1845 49.4228 1.09313C49.2526 1.01191 49.0824 0.937451 48.9088 0.866381C48.7453 0.798695 48.5818 0.737777 48.4182 0.67686C48.218 0.60579 48.0177 0.538104 47.8141 0.477186C47.6673 0.43319 47.5171 0.392579 47.3669 0.355351C47.1499 0.301203 46.9363 0.250438 46.7161 0.206442C46.5659 0.175984 46.4157 0.152293 46.2655 0.131988C46.0519 0.0981447 45.8383 0.0710703 45.6247 0.0507645C45.4578 0.033843 45.2909 0.0236901 45.124 0.0169215C44.9271 0.0067686 44.7302 0 44.5366 0C44.3464 0 44.1561 0.0067686 43.9659 0.0169215C43.7923 0.0270744 43.6221 0.033843 43.4519 0.0507645C43.2417 0.0710703 43.0314 0.0981447 42.8245 0.131988C42.6709 0.155678 42.5174 0.179368 42.3605 0.209827C42.1469 0.250438 41.9333 0.301203 41.7231 0.355351C41.5695 0.392579 41.4193 0.43319 41.2658 0.48057C41.0656 0.541488 40.8686 0.609174 40.6717 0.67686C40.5048 0.737777 40.338 0.798695 40.1711 0.866381C40.0009 0.937451 39.8307 1.01191 39.6638 1.09313C39.4735 1.1845 39.2833 1.27926 39.093 1.38079C38.9562 1.45525 38.8194 1.53309 38.6859 1.61093C38.4756 1.73615 38.272 1.86813 38.0684 2.00689C37.9516 2.08811 37.8348 2.16934 37.718 2.25394C37.5211 2.39947 37.3342 2.55176 37.1472 2.70405C37.0238 2.80897 36.9003 2.9105 36.7801 3.02218C36.6266 3.16094 36.4831 3.30308 36.3396 3.4486C36.196 3.59413 36.0559 3.73965 35.919 3.89194C35.8089 4.01378 35.7054 4.139 35.6053 4.2676C35.4551 4.45374 35.3049 4.64326 35.1614 4.84293C32.3211 8.80256 32.1109 14.3054 35.0412 18.5358L44.54 32.2422L54.0387 18.5358C56.9691 14.3054 56.7588 8.80256 53.9185 4.84293Z" fill="#000049"/>
<path d="M107.89 12.1428H116.518L119.989 26.8036C120.76 30.1744 121.581 35.4539 121.581 35.4539H121.678C121.678 35.4539 122.592 30.6651 123.363 27.1454L126.591 12.1428H134.494L137.725 27.0507C138.496 30.6177 139.364 35.4573 139.364 35.4573H139.46C139.46 35.4573 140.425 30.1778 141.196 26.7088L144.617 12.1462H153.198L143.753 47.0891H135.415L131.797 30.3233C131.17 27.538 130.593 23.822 130.593 23.822H130.496C130.496 23.822 129.918 27.538 129.338 30.3233L125.723 47.0857H117.336L107.89 12.1428Z" fill="#02010B"/>
<path d="M151.078 34.5266C151.078 27.0473 156.235 21.3312 163.755 21.3312C167.272 21.3312 170.069 22.5056 172.189 24.4583C175.129 27.1962 176.574 31.5451 176.527 36.6283H158.792C159.272 39.999 161.105 42.1007 164.335 42.1007C166.408 42.1007 167.756 41.1734 168.434 39.6065H176.097C175.566 41.8536 174.121 44.006 171.952 45.5188C169.879 46.9842 167.373 47.8168 164.239 47.8168C156.092 47.8201 151.078 42.1041 151.078 34.5266ZM168.574 31.8869C168.284 28.9053 166.455 26.9999 163.898 26.9999C160.911 26.9999 159.369 28.9053 158.838 31.8869H168.574Z" fill="#02010B"/>
<path d="M179.228 12.1428H187.181V47.0857H179.228V12.1428Z" fill="#02010B"/>
<path d="M189.878 34.6247C189.878 27.0981 194.988 21.3786 202.794 21.3786C209.493 21.3786 213.785 25.3382 214.506 30.9562H206.939C206.459 28.709 205.107 27.2436 202.891 27.2436C199.517 27.2436 197.831 30.0796 197.831 34.6247C197.831 39.0717 199.517 41.9078 202.891 41.9078C205.347 41.9078 206.843 40.4424 207.18 37.6063H214.699C214.506 43.3732 209.977 47.8709 202.988 47.8709C195.034 47.8709 189.878 42.1514 189.878 34.6247Z" fill="#02010B"/>
<path d="M216.098 34.6247C216.098 27.0981 221.401 21.3786 229.304 21.3786C237.258 21.3786 242.461 27.0981 242.461 34.6247C242.461 42.1514 237.255 47.8709 229.304 47.8709C221.401 47.8709 216.098 42.1514 216.098 34.6247ZM234.511 34.6247C234.511 30.0796 232.679 26.9999 229.258 26.9999C225.837 26.9999 224.051 30.0796 224.051 34.6247C224.051 39.1699 225.833 42.1988 229.258 42.1988C232.679 42.1988 234.511 39.1699 234.511 34.6247Z" fill="#02010B"/>
<path d="M245.115 22.0656H252.634V25.6327H252.778C254.32 23.0437 256.683 21.3312 260.247 21.3312C263.478 21.3312 265.934 23.0403 267.189 25.7308H267.286C269.215 22.7019 271.865 21.3312 275.046 21.3312C280.636 21.3312 283.433 25.1927 283.433 30.814V47.0891H275.577V32.2321C275.577 29.5449 274.468 27.9814 272.105 27.9814C269.599 27.9814 268.201 30.083 268.201 33.0646V47.0925H260.344V32.2355C260.344 29.5483 259.236 27.9848 256.873 27.9848C254.416 27.9848 252.968 30.0864 252.968 33.068V47.0959H245.111V22.0656H245.115Z" fill="#02010B"/>
<path d="M285.89 34.5266C285.89 27.0473 291.046 21.3312 298.566 21.3312C302.084 21.3312 304.88 22.5056 307 24.4583C309.94 27.1962 311.385 31.5451 311.339 36.6283H293.603C294.083 39.999 295.916 42.1007 299.146 42.1007C301.219 42.1007 302.567 41.1734 303.245 39.6065H310.908C310.377 41.8536 308.932 44.006 306.763 45.5188C304.69 46.9842 302.184 47.8168 299.05 47.8168C290.903 47.8201 285.89 42.1041 285.89 34.5266ZM303.385 31.8869C303.095 28.9053 301.266 26.9999 298.709 26.9999C295.722 26.9999 294.18 28.9053 293.649 31.8869H303.385Z" fill="#02010B"/>
<path d="M313.415 38.8754H321.655V47.0857H313.415V38.8754Z" fill="#02010B"/>
<path d="M324.595 34.7702V12.1428H333.126V35.0647C333.126 38.4862 334.862 40.7841 339.054 40.7841C343.005 40.7841 344.885 38.3407 344.885 34.9192V12.1428H353.415V34.7702C353.415 42.835 348.643 47.722 339.05 47.722C329.415 47.722 324.595 42.9332 324.595 34.7702Z" fill="#02010B"/>
<path d="M356.503 36.0901H365.08C365.467 39.6098 367.73 41.0752 371.829 41.0752C374.622 41.0752 377.373 40.0498 377.373 37.41C377.373 34.6247 374.576 34.0393 369.853 32.8649C363.875 31.4469 357.561 29.5889 357.561 22.2585C357.561 14.7826 363.538 11.5066 371.248 11.5066C378.718 11.5066 384.502 14.9281 384.839 22.2585H376.501C376.164 19.5714 374.138 18.0552 370.958 18.0552C367.971 18.0552 365.995 19.3751 365.995 21.3312C365.995 23.7747 368.645 24.3602 373.801 25.5345C380.213 27.0507 385.997 29.0542 385.997 36.5301C385.997 43.8605 379.829 47.9183 371.876 47.9183C362.721 47.9183 356.693 43.8131 356.503 36.0901Z" fill="#02010B"/>
</g>
<defs>
<clipPath id="clip0_806_2">
<rect width="386" height="56" fill="white"/>
</clipPath>
</defs>
</svg>
